<svg width="68" height="68" viewBox="0 0 68 68" fill="none" xmlns="http://www.w3.org/2000/svg">
<path d="M34 0C43.2378 0 44.3904 0.0339998 48.0148 0.204C51.6358 0.374 54.1008 0.9418 56.27 1.785C58.514 2.6486 60.4044 3.8182 62.2948 5.7052C64.0237 7.40485 65.3614 9.4608 66.215 11.73C67.0548 13.8958 67.626 16.3642 67.796 19.9852C67.9558 23.6096 68 24.7622 68 34C68 43.2378 67.966 44.3904 67.796 48.0148C67.626 51.6358 67.0548 54.1008 66.215 56.27C65.3639 58.5404 64.0258 60.5969 62.2948 62.2948C60.5947 64.0231 58.5388 65.3608 56.27 66.215C54.1042 67.0548 51.6358 67.626 48.0148 67.796C44.3904 67.9558 43.2378 68 34 68C24.7622 68 23.6096 67.966 19.9852 67.796C16.3642 67.626 13.8992 67.0548 11.73 66.215C9.45991 65.3632 7.40359 64.0252 5.7052 62.2948C3.97598 60.5954 2.63817 58.5394 1.785 56.27C0.9418 54.1042 0.374 51.6358 0.204 48.0148C0.0441998 44.3904 0 43.2378 0 34C0 24.7622 0.0339998 23.6096 0.204 19.9852C0.374 16.3608 0.9418 13.8992 1.785 11.73C2.6358 9.45941 3.97393 7.40289 5.7052 5.7052C7.40408 3.97539 9.46026 2.63748 11.73 1.785C13.8992 0.9418 16.3608 0.374 19.9852 0.204C23.6096 0.0441998 24.7622 0 34 0ZM34 17C29.4913 17 25.1673 18.7911 21.9792 21.9792C18.7911 25.1673 17 29.4913 17 34C17 38.5087 18.7911 42.8327 21.9792 46.0208C25.1673 49.2089 29.4913 51 34 51C38.5087 51 42.8327 49.2089 46.0208 46.0208C49.2089 42.8327 51 38.5087 51 34C51 29.4913 49.2089 25.1673 46.0208 21.9792C42.8327 18.7911 38.5087 17 34 17ZM56.1 16.15C56.1 15.0228 55.6522 13.9418 54.8552 13.1448C54.0582 12.3478 52.9772 11.9 51.85 11.9C50.7228 11.9 49.6418 12.3478 48.8448 13.1448C48.0478 13.9418 47.6 15.0228 47.6 16.15C47.6 17.2772 48.0478 18.3582 48.8448 19.1552C49.6418 19.9522 50.7228 20.4 51.85 20.4C52.9772 20.4 54.0582 19.9522 54.8552 19.1552C55.6522 18.3582 56.1 17.2772 56.1 16.15ZM34 23.8C36.7052 23.8 39.2996 24.8746 41.2125 26.7875C43.1254 28.7004 44.2 31.2948 44.2 34C44.2 36.7052 43.1254 39.2996 41.2125 41.2125C39.2996 43.1254 36.7052 44.2 34 44.2C31.2948 44.2 28.7004 43.1254 26.7875 41.2125C24.8746 39.2996 23.8 36.7052 23.8 34C23.8 31.2948 24.8746 28.7004 26.7875 26.7875C28.7004 24.8746 31.2948 23.8 34 23.8Z" fill="#F2ECE6"/>
</svg>
