<svg width="68" height="68" viewBox="0 0 68 68" fill="none" xmlns="http://www.w3.org/2000/svg">
<path d="M44.4358 0H23.5619C4.51343 0 -0.00219727 4.51562 -0.00219727 23.5641V44.438C-0.00219727 63.4865 4.51343 68.0021 23.5619 68.0021H44.4358C63.4843 68.0021 67.9999 63.4865 67.9999 44.438V23.5641C67.9999 4.51562 63.4397 0 44.4358 0ZM54.8951 48.5095H49.9587C48.0887 48.5095 47.5128 47.0262 44.1489 43.6177C41.2271 40.7851 39.9329 40.409 39.2126 40.409C38.1947 40.409 37.9057 40.6959 37.9057 42.092V46.5524C37.9057 47.7487 37.5296 48.467 34.3633 48.467C29.1273 48.467 23.3176 45.3008 19.2439 39.4017C13.1006 30.7572 11.4197 24.2824 11.4197 22.9436C11.4197 22.2232 11.7066 21.5496 13.0899 21.5496H18.0369C19.2886 21.5496 19.7646 22.1255 20.2512 23.4642C22.6971 30.5256 26.7707 36.7115 28.4516 36.7115C29.0721 36.7115 29.3589 36.4246 29.3589 34.8415V27.5485C29.1698 24.1846 27.3997 23.8956 27.3997 22.7014C27.3997 22.1255 27.8757 21.5496 28.6386 21.5496H36.4182C37.4701 21.5496 37.8568 22.1255 37.8568 23.3644V33.2031C37.8568 34.2656 38.3328 34.6418 38.6197 34.6418C39.2402 34.6418 39.7714 34.2656 40.9211 33.1139C44.4741 29.1295 47.0198 22.9861 47.0198 22.9861C47.3513 22.2658 47.9272 21.5921 49.1788 21.5921H54.1258C55.6091 21.5921 55.9406 22.355 55.6091 23.4175C54.9886 26.2948 48.9344 34.8394 48.9344 34.8394C48.4138 35.7021 48.2141 36.0783 48.9344 37.0409C49.4657 37.7612 51.1933 39.2551 52.3429 40.5939C54.4573 42.9951 56.0829 45.0096 56.5164 46.4036C57.0031 47.787 56.2848 48.5074 54.8887 48.5074L54.8951 48.5095Z" fill="#F2ECE6"/>
</svg>
