<svg width="68" height="48" viewBox="0 0 68 48" fill="none" xmlns="http://www.w3.org/2000/svg">
<path d="M66.5719 7.5756C66.177 6.16404 65.4244 4.87835 64.3868 3.84302C63.3493 2.80769 62.0619 2.05781 60.6495 1.66598C55.3477 0.248603 34.0339 0.248603 34.0339 0.248603C34.0339 0.248603 12.7605 0.214603 7.40339 1.66598C5.99324 2.05953 4.70845 2.8102 3.67322 3.84543C2.63798 4.88066 1.88731 6.16545 1.49376 7.5756C0.486938 13.0033 -0.00893941 18.5135 0.0126378 24.0337C0.00281368 29.5274 0.498613 35.0104 1.49376 40.4132C1.88859 41.8241 2.63948 43.1099 3.67435 44.147C4.70923 45.1841 5.99333 45.9377 7.40339 46.3356C12.7053 47.753 34.0339 47.753 34.0339 47.753C34.0339 47.753 55.2945 47.753 60.6495 46.3356C62.0618 45.9395 63.3485 45.1866 64.3857 44.1494C65.4229 43.1122 66.1758 41.8255 66.5719 40.4132C67.5473 35.0136 68.0233 29.5226 67.9893 24.0337C68.0233 18.5087 67.5579 13.0092 66.5719 7.5756ZM27.2254 34.2061V13.8167L44.967 24.0337L27.2254 34.2061Z" fill="#F2ECE6"/>
</svg>
