<svg width="598" height="30" viewBox="0 0 598 30" fill="none" xmlns="http://www.w3.org/2000/svg">
<path d="M0.2 1.12L11.04 29H17.04L26.64 1.12H25.96L16.64 28.12L6.16 1.12H0.2ZM29.8281 29H51.7881V28.32H35.5081V14.8H48.2281V14.08H35.5081V1.8H51.7881V1.12H29.8281V29ZM54.5938 29H69.1938C77.4738 29 84.1938 24.44 84.1938 15C84.1938 5.36 77.3138 0.439998 69.0338 0.439998C62.4338 0.439998 60.4738 6.4 60.2738 7.6V1.12H54.5938V29ZM60.2738 28.32V12.36C60.2738 5.72 63.7138 1.12 69.0338 1.12C74.9938 1.12 78.4338 5.96 78.4338 15C78.4338 23.12 74.5138 28.32 68.5538 28.32H60.2738ZM87.6016 17.72C87.6016 26.32 91.4816 29.72 99.9216 29.72C105.202 29.72 109.322 24.84 110.922 19V29H116.602V1.12H110.922V14.64C110.322 22.6 105.882 29.04 99.9216 29.04C94.7616 29.04 93.2816 26.72 93.2816 17.72V1.12H87.6016V17.72ZM132.049 11.32C125.369 10.4 123.449 8.6 123.449 6.24C123.449 2.44 127.649 1.16 131.689 1.16C138.209 1.16 138.449 4.48 138.449 9.84L144.049 9.08C144.049 2.92 139.489 0.52 131.689 0.52C126.129 0.52 121.049 2.8 121.049 7.88C121.049 12.96 123.569 15.4 131.969 16.64C138.689 17.64 142.649 19 142.649 22.64C142.649 27.72 139.769 28.96 133.009 28.96C126.689 28.96 126.529 25 126.529 19.32L120.369 20.24C120.369 27.2 124.609 29.64 133.009 29.64C141.489 29.64 145.449 27.56 145.449 21.44C145.449 16.92 143.729 12.92 132.049 11.32ZM149.203 1.12V29H154.883V14.84H170.243V29H175.923V1.12H170.243V14.16H154.883V1.12H149.203ZM194.866 29.64C197.866 29.64 203.666 29.48 208.466 24.76L207.986 24.32C203.386 28.84 197.786 28.92 194.866 28.88C188.906 28.88 185.266 24.04 185.266 15.08C185.266 6.6 188.106 1.2 194.866 1.2C198.986 1.2 205.186 2.8 205.986 7.64L206.666 7.56C206.106 4.4 202.386 0.52 194.866 0.52C185.466 0.52 179.306 6.68 179.306 15.08C179.306 23.4 185.466 29.64 194.866 29.64ZM211.469 1.12V29H217.149V14.84H232.509V29H238.189V1.12H232.509V14.16H217.149V1.12H211.469ZM242.172 29H247.852V1.12H242.172V29ZM251.859 29H273.819V28.32H257.539V14.8H270.259V14.08H257.539V1.8H273.819V1.12H251.859V29ZM292.641 29H298.321V2.16L308.441 15.44L318.521 2.16V29H324.201V1.12H318.441L308.441 14.32L298.361 1.12H292.641V29ZM327.388 29H328.108L332.028 17.6H343.428L347.868 29H353.828L343.028 1.12H336.988L327.388 29ZM337.388 2L343.188 16.92H332.268L337.388 2ZM366.268 11.32C359.588 10.4 357.668 8.6 357.668 6.24C357.668 2.44 361.868 1.16 365.908 1.16C372.428 1.16 372.668 4.48 372.668 9.84L378.268 9.08C378.268 2.92 373.708 0.52 365.908 0.52C360.348 0.52 355.268 2.8 355.268 7.88C355.268 12.96 357.788 15.4 366.188 16.64C372.908 17.64 376.868 19 376.868 22.64C376.868 27.72 373.988 28.96 367.228 28.96C360.908 28.96 360.748 25 360.748 19.32L354.588 20.24C354.588 27.2 358.828 29.64 367.228 29.64C375.708 29.64 379.668 27.56 379.668 21.44C379.668 16.92 377.948 12.92 366.268 11.32ZM391.3 1.8L391.34 29H397.02V1.8H408.5V1.12H379.82V1.8H391.3ZM410.492 29H432.452V28.32H416.172V14.8H428.892V14.08H416.172V1.8H432.452V1.12H410.492V29ZM435.258 1.12V29H440.938V19.36H447.698L454.218 28.96H460.698L453.818 18.76C457.818 17.72 460.858 15.24 460.858 9.68C460.858 2.72 455.778 0.52 449.858 0.52C443.618 0.52 441.818 5.2 440.938 10.4V1.12H435.258ZM442.498 6.96C443.578 3.04 446.378 1.44 448.858 1.24C454.818 0.68 455.058 4.48 455.058 9.68C455.058 18.12 450.578 18.68 446.738 18.68H440.938C440.938 18.68 440.778 13.16 442.498 6.96ZM463.442 29H464.162L468.082 17.6H479.482L483.922 29H489.882L479.082 1.12H473.042L463.442 29ZM473.442 2L479.242 16.92H468.322L473.442 2ZM509.086 29H514.766V2.16L524.886 15.44L534.966 2.16V29H540.646V1.12H534.886L524.886 14.32L514.806 1.12H509.086V29ZM556.073 11.32C549.393 10.4 547.473 8.6 547.473 6.24C547.473 2.44 551.673 1.16 555.713 1.16C562.233 1.16 562.473 4.48 562.473 9.84L568.073 9.08C568.073 2.92 563.513 0.52 555.713 0.52C550.153 0.52 545.073 2.8 545.073 7.88C545.073 12.96 547.593 15.4 555.993 16.64C562.713 17.64 566.673 19 566.673 22.64C566.673 27.72 563.793 28.96 557.033 28.96C550.713 28.96 550.553 25 550.553 19.32L544.393 20.24C544.393 27.2 548.633 29.64 557.033 29.64C565.513 29.64 569.473 27.56 569.473 21.44C569.473 16.92 567.753 12.92 556.073 11.32ZM573.227 29H578.907V14.88H582.387C591.067 14.88 591.227 22.24 591.227 29H597.107C597.107 20.92 594.547 15.72 585.987 14.48L594.267 1.12H593.427L585.187 14.4C584.307 14.28 583.467 14.24 582.467 14.24L578.907 14.2V1.12H573.227V29Z" fill="#F2ECE6"/>
</svg>
