<svg width="80" height="80" viewBox="0 0 80 80" fill="none" xmlns="http://www.w3.org/2000/svg">
<circle cx="40" cy="40" r="38.5" stroke="#292C26" stroke-width="3"/>
<path fill-rule="evenodd" clip-rule="evenodd" d="M42.2604 28.0147C42.1227 28.0479 42.0077 28.1436 41.9583 28.2659C41.9224 28.3548 41.9215 28.5408 41.9564 28.6562C41.9776 28.7264 42.0993 29.0517 42.2211 29.3639C42.2452 29.4256 42.3345 29.6582 42.4195 29.8806C42.5046 30.103 42.6226 30.4113 42.6817 30.5658C42.7409 30.7202 42.8241 30.9376 42.8666 31.0488C43.107 31.6779 43.7244 33.2895 43.7617 33.3851C43.7858 33.4469 43.8488 33.6112 43.9017 33.7502C43.9547 33.8892 44.0242 34.0712 44.0563 34.1546C44.3941 35.033 44.4029 35.0605 44.3567 35.094C44.3317 35.1121 44.2606 35.1136 44.1652 35.0981C44.1273 35.092 43.8413 35.0489 43.5296 35.0024C43.218 34.9559 42.8304 34.8979 42.6684 34.8734C42.5063 34.849 42.1519 34.796 41.8808 34.7557C41.6096 34.7154 41.3572 34.6774 41.3198 34.6713C41.2824 34.6652 41.0631 34.6323 40.8325 34.5982C40.6019 34.5641 40.3813 34.5313 40.3424 34.5251C40.3034 34.519 40.2397 34.509 40.2007 34.5028C40.1618 34.4967 39.9412 34.4638 39.7106 34.4297C39.48 34.3957 39.2594 34.3628 39.2205 34.3566C39.1815 34.3505 39.1178 34.3405 39.0788 34.3343C39.0399 34.3282 38.8193 34.2951 38.5887 34.2609C38.3581 34.2266 37.9527 34.166 37.6878 34.1262C37.4229 34.0865 37.0378 34.0287 36.8322 33.9979C35.6119 33.815 35.2771 33.7648 34.8433 33.6996C33.695 33.5273 33.1924 33.4519 32.4465 33.3402C32.0102 33.2748 31.4008 33.1835 31.0923 33.1372C30.7837 33.0909 30.312 33.0203 30.044 32.9803C29.776 32.9403 29.5261 32.9026 29.4887 32.8964C29.4513 32.8903 29.232 32.8573 29.0014 32.823C28.6049 32.7642 28.2215 32.7068 27.2789 32.5653C26.4996 32.4483 25.735 32.3337 25.2504 32.2614C24.9824 32.2214 24.7325 32.1837 24.6951 32.1776C24.6577 32.1715 24.4894 32.1463 24.3211 32.1215C23.9922 32.073 23.8283 32.0484 23.7205 32.0313C23.6831 32.0254 23.4817 31.9952 23.2729 31.9642C23.0641 31.9332 22.8448 31.9005 22.7856 31.8914C22.7264 31.8823 22.5402 31.8545 22.3719 31.8295C22.2036 31.8046 22.0354 31.7792 21.998 31.7732C21.9606 31.7672 21.7081 31.7293 21.437 31.6891C21.1659 31.6488 20.9134 31.6109 20.8761 31.6048C20.8387 31.5987 20.6525 31.5709 20.4624 31.543C20.2723 31.5151 20.0849 31.4873 20.0459 31.4811C20.007 31.475 19.9432 31.465 19.9043 31.4588C19.8653 31.4527 19.6448 31.4197 19.4142 31.3856C19.1835 31.3515 18.9643 31.3187 18.9269 31.3127C18.351 31.2203 18.1663 31.2054 18.0312 31.2403C17.9055 31.2727 17.8044 31.3509 17.7458 31.4612C17.7169 31.5157 17.7143 31.5306 17.7143 31.6441C17.7143 31.7629 17.7159 31.7709 17.7551 31.8519C17.7776 31.8982 17.8184 31.9644 17.8458 31.9989C17.8732 32.0334 18.1862 32.367 18.5415 32.7402C18.8967 33.1135 19.2281 33.4618 19.2781 33.5143C19.4389 33.6833 19.5592 33.8092 19.659 33.9129C19.7127 33.9686 20.0156 34.2871 20.3323 34.6207C20.6489 34.9543 20.9566 35.2778 21.0159 35.3396C21.2204 35.5525 21.2871 35.6224 21.8509 36.2157C22.8277 37.2435 23.1094 37.5394 23.2839 37.7209C23.3315 37.7703 23.7089 38.1671 24.1227 38.6026C24.5365 39.0382 24.9167 39.4375 24.9675 39.49C25.1573 39.6863 25.2017 39.7396 25.2371 39.8137C25.2704 39.8832 25.273 39.8976 25.273 40.0067C25.273 40.1116 25.2696 40.1319 25.2422 40.1898C25.2045 40.2697 25.1942 40.2828 25.0418 40.4446C24.9748 40.5157 24.4185 41.1098 23.8055 41.7646C23.1926 42.4195 22.634 43.0159 22.5643 43.0901C22.4945 43.1642 22.1656 43.5155 21.8333 43.8707C21.501 44.2259 21.165 44.5847 21.0866 44.668C21.0082 44.7512 20.9061 44.8599 20.8598 44.9095C20.8135 44.959 20.747 45.0299 20.712 45.067C20.6771 45.1041 20.4192 45.3795 20.139 45.6792C19.0453 46.8486 18.7335 47.1817 18.6612 47.2573C18.62 47.3006 18.4921 47.4371 18.3771 47.5606C18.2621 47.6842 18.1343 47.8206 18.0931 47.8639C17.8637 48.1048 17.8055 48.1777 17.7514 48.2914C17.7162 48.3653 17.7143 48.376 17.7143 48.4985C17.7143 48.6117 17.7175 48.6337 17.7403 48.676C17.8186 48.8213 17.9569 48.9035 18.151 48.9199C18.2556 48.9288 18.2995 48.9234 18.9665 48.8198C20.0472 48.6519 20.4694 48.5864 20.5304 48.5771C20.5647 48.572 20.71 48.5494 20.8534 48.5271C21.2643 48.463 21.3784 48.4452 21.6807 48.3983C21.8365 48.3741 22.1807 48.3206 22.4456 48.2795C22.7105 48.2383 22.9553 48.2004 22.9896 48.1953C23.0238 48.1901 23.2686 48.1522 23.5335 48.111C23.7984 48.0699 24.1401 48.0168 24.2928 47.993C24.4455 47.9693 24.754 47.9213 24.9784 47.8863C25.2028 47.8513 25.4144 47.8185 25.4487 47.8133C25.483 47.8082 25.7252 47.7707 25.987 47.7301C26.2488 47.6894 26.6567 47.6261 26.8936 47.5894C27.1304 47.5526 27.6863 47.4662 28.1288 47.3974C28.5714 47.3285 29.1731 47.2351 29.4661 47.1898C29.759 47.1445 30.2154 47.0738 30.4803 47.0326C30.7452 46.9915 30.99 46.9536 31.0243 46.9485C31.0585 46.9433 31.2702 46.9105 31.4946 46.8755C31.9243 46.8085 32.1556 46.7725 32.9395 46.6508C33.2044 46.6097 33.6327 46.5432 33.8914 46.503C34.15 46.4629 34.3897 46.4257 34.424 46.4205C34.5396 46.4029 35.0742 46.32 35.2569 46.2913C35.4799 46.2562 35.8584 46.1974 35.9426 46.1847C36.034 46.1708 36.8397 46.0458 37.7897 45.898C38.2479 45.8268 38.6711 45.7611 38.7303 45.7521C38.7896 45.7431 38.968 45.7154 39.127 45.6906C39.4695 45.637 40.3413 45.5016 40.4302 45.4882C40.4645 45.483 40.7093 45.4451 40.9742 45.404C41.2391 45.3628 41.4838 45.3249 41.5181 45.3197C41.5858 45.3096 42.2678 45.2033 42.606 45.1503C42.7214 45.1322 42.8488 45.1124 42.8894 45.1063C42.9299 45.1002 43.1747 45.0623 43.4333 45.0221C43.692 44.9819 43.9897 44.9356 44.095 44.9193C44.2349 44.8976 44.2973 44.8924 44.3273 44.8997C44.4112 44.9203 44.3969 44.9727 44.1016 45.7297C44.0624 45.8301 43.8899 46.2805 43.6713 46.853C43.6288 46.9642 43.4273 47.4898 43.2236 48.0211C43.0198 48.5524 42.8058 49.111 42.748 49.2623C42.6902 49.4137 42.4937 49.9268 42.3113 50.4025C42.1289 50.8781 41.9691 51.3027 41.9562 51.346C41.9386 51.4046 41.9325 51.4561 41.9324 51.5482C41.9322 51.7111 41.9572 51.7775 42.0554 51.8749C42.1966 52.0149 42.3796 52.0372 42.6123 51.9428C42.6618 51.9227 43.1817 51.6315 43.7676 51.2958C44.6 50.8188 46.7018 49.6155 48.3289 48.6843C48.4068 48.6397 49.2636 48.1493 50.2328 47.5946C51.202 47.0399 52.7727 46.1409 53.7232 45.5969C54.6737 45.0529 55.51 44.5742 55.5817 44.533C55.7891 44.4138 59.1552 42.4876 60.8796 41.5012C61.746 41.0056 62.4863 40.5801 62.5247 40.5555C62.6157 40.4973 62.7216 40.3926 62.7707 40.3122C62.8337 40.2092 62.8572 40.1248 62.8572 40.0011C62.8572 39.8775 62.8337 39.793 62.7707 39.69C62.7216 39.6096 62.6157 39.5049 62.5247 39.4467C62.4863 39.4221 61.8301 39.0447 61.0666 38.6079C60.3031 38.1712 58.8523 37.3409 57.8425 36.7629C56.8328 36.1849 55.3208 35.3195 54.4825 34.8397C53.6441 34.3598 52.9072 33.9379 52.8449 33.9021C52.7137 33.8266 50.0466 32.3 47.8246 31.0287C46.9832 30.5472 46.0857 30.0332 45.8301 29.8865C44.0343 28.8553 42.6908 28.0913 42.6254 28.0638C42.5481 28.0314 42.4036 27.9983 42.3472 28.0001C42.3306 28.0006 42.2916 28.0072 42.2604 28.0147Z" fill="#292C26"/>
</svg>
