<svg width="80" height="80" viewBox="0 0 80 80" fill="none" xmlns="http://www.w3.org/2000/svg">
<circle r="38.5" transform="matrix(-1 0 0 1 40 40)" stroke="#292C26" stroke-width="3"/>
<path fill-rule="evenodd" clip-rule="evenodd" d="M37.74 28.0147C37.8777 28.0479 37.9927 28.1436 38.0421 28.2659C38.078 28.3548 38.079 28.5408 38.0441 28.6562C38.0229 28.7264 37.9012 29.0517 37.7794 29.3639C37.7553 29.4256 37.666 29.6582 37.5809 29.8806C37.4959 30.103 37.3779 30.4113 37.3187 30.5658C37.2595 30.7202 37.1763 30.9376 37.1338 31.0488C36.8934 31.6779 36.276 33.2895 36.2388 33.3851C36.2147 33.4469 36.1517 33.6112 36.0987 33.7502C36.0458 33.8892 35.9762 34.0712 35.9441 34.1546C35.6064 35.033 35.5975 35.0605 35.6438 35.094C35.6687 35.1121 35.7398 35.1136 35.8352 35.0981C35.8731 35.092 36.1591 35.0489 36.4708 35.0024C36.7824 34.9559 37.17 34.8979 37.3321 34.8734C37.4941 34.849 37.8485 34.796 38.1197 34.7557C38.3908 34.7154 38.6432 34.6774 38.6806 34.6713C38.718 34.6652 38.9373 34.6323 39.1679 34.5982C39.3985 34.5641 39.6191 34.5313 39.658 34.5251C39.697 34.519 39.7607 34.509 39.7997 34.5028C39.8386 34.4967 40.0592 34.4638 40.2898 34.4297C40.5204 34.3957 40.741 34.3628 40.78 34.3566C40.8189 34.3505 40.8827 34.3405 40.9216 34.3343C40.9606 34.3282 41.1811 34.2951 41.4117 34.2609C41.6424 34.2266 42.0478 34.166 42.3127 34.1262C42.5776 34.0865 42.9626 34.0287 43.1683 33.9979C44.3885 33.815 44.7233 33.7648 45.1571 33.6996C46.3054 33.5273 46.8081 33.4519 47.5539 33.3402C47.9902 33.2748 48.5996 33.1835 48.9082 33.1372C49.2167 33.0909 49.6884 33.0203 49.9564 32.9803C50.2244 32.9403 50.4743 32.9026 50.5117 32.8964C50.5491 32.8903 50.7684 32.8573 50.999 32.823C51.3955 32.7642 51.7789 32.7068 52.7215 32.5653C53.5008 32.4483 54.2655 32.3337 54.75 32.2614C55.0181 32.2214 55.2679 32.1837 55.3053 32.1776C55.3427 32.1715 55.511 32.1463 55.6793 32.1215C56.0082 32.073 56.1721 32.0484 56.2799 32.0313C56.3173 32.0254 56.5188 31.9952 56.7276 31.9642C56.9364 31.9332 57.1556 31.9005 57.2149 31.8914C57.2741 31.8823 57.4602 31.8545 57.6285 31.8295C57.7968 31.8046 57.9651 31.7792 58.0025 31.7732C58.0399 31.7672 58.2923 31.7293 58.5634 31.6891C58.8345 31.6488 59.087 31.6109 59.1244 31.6048C59.1618 31.5987 59.3479 31.5709 59.538 31.543C59.7281 31.5151 59.9155 31.4873 59.9545 31.4811C59.9934 31.475 60.0572 31.465 60.0961 31.4588C60.1351 31.4527 60.3556 31.4197 60.5863 31.3856C60.8169 31.3515 61.0362 31.3187 61.0736 31.3127C61.6494 31.2203 61.8341 31.2054 61.9693 31.2403C62.095 31.2727 62.196 31.3509 62.2546 31.4612C62.2835 31.5157 62.2861 31.5306 62.2861 31.6441C62.2861 31.7629 62.2846 31.7709 62.2453 31.8519C62.2228 31.8982 62.182 31.9644 62.1546 31.9989C62.1272 32.0334 61.8142 32.367 61.459 32.7402C61.1038 33.1135 60.7723 33.4618 60.7224 33.5143C60.5616 33.6833 60.4412 33.8092 60.3414 33.9129C60.2878 33.9686 59.9848 34.2871 59.6681 34.6207C59.3515 34.9543 59.0438 35.2778 58.9845 35.3396C58.78 35.5525 58.7134 35.6224 58.1495 36.2157C57.1728 37.2435 56.891 37.5394 56.7165 37.7209C56.6689 37.7703 56.2915 38.1671 55.8777 38.6026C55.4639 39.0382 55.0838 39.4375 55.033 39.49C54.8431 39.6863 54.7987 39.7396 54.7633 39.8137C54.7301 39.8832 54.7274 39.8976 54.7274 40.0067C54.7274 40.1116 54.7308 40.1319 54.7582 40.1898C54.7959 40.2697 54.8062 40.2828 54.9586 40.4446C55.0256 40.5157 55.5819 41.1098 56.1949 41.7646C56.8079 42.4195 57.3664 43.0159 57.4362 43.0901C57.5059 43.1642 57.8348 43.5155 58.1671 43.8707C58.4994 44.2259 58.8355 44.5847 58.9139 44.668C58.9923 44.7512 59.0943 44.8599 59.1406 44.9095C59.1869 44.959 59.2535 45.0299 59.2884 45.067C59.3234 45.1041 59.5812 45.3795 59.8615 45.6792C60.9552 46.8486 61.267 47.1817 61.3392 47.2573C61.3804 47.3006 61.5083 47.4371 61.6233 47.5606C61.7384 47.6842 61.8662 47.8206 61.9073 47.8639C62.1367 48.1048 62.1949 48.1777 62.249 48.2914C62.2842 48.3653 62.2861 48.376 62.2861 48.4985C62.2861 48.6117 62.2829 48.6337 62.2601 48.676C62.1818 48.8213 62.0436 48.9035 61.8494 48.9199C61.7448 48.9288 61.7009 48.9234 61.0339 48.8198C59.9533 48.6519 59.531 48.5864 59.47 48.5771C59.4357 48.572 59.2904 48.5494 59.147 48.5271C58.7361 48.463 58.622 48.4452 58.3198 48.3983C58.164 48.3741 57.8197 48.3206 57.5548 48.2795C57.2899 48.2383 57.0452 48.2004 57.0109 48.1953C56.9766 48.1901 56.7318 48.1522 56.4669 48.111C56.202 48.0699 55.8603 48.0168 55.7076 47.993C55.5549 47.9693 55.2464 47.9213 55.022 47.8863C54.7976 47.8513 54.586 47.8185 54.5517 47.8133C54.5174 47.8082 54.2752 47.7707 54.0134 47.7301C53.7517 47.6894 53.3437 47.6261 53.1068 47.5894C52.87 47.5526 52.3141 47.4662 51.8716 47.3974C51.4291 47.3285 50.8273 47.2351 50.5344 47.1898C50.2414 47.1445 49.785 47.0738 49.5201 47.0326C49.2552 46.9915 49.0104 46.9536 48.9762 46.9485C48.9419 46.9433 48.7302 46.9105 48.5059 46.8755C48.0761 46.8085 47.8449 46.7725 47.061 46.6508C46.7961 46.6097 46.3677 46.5432 46.109 46.503C45.8504 46.4629 45.6107 46.4257 45.5764 46.4205C45.4608 46.4029 44.9262 46.32 44.7435 46.2913C44.5205 46.2562 44.142 46.1974 44.0579 46.1847C43.9664 46.1708 43.1608 46.0458 42.2107 45.898C41.7526 45.8268 41.3293 45.7611 41.2701 45.7521C41.2109 45.7431 41.0324 45.7154 40.8734 45.6906C40.5309 45.637 39.6591 45.5016 39.5702 45.4882C39.5359 45.483 39.2912 45.4451 39.0263 45.404C38.7614 45.3628 38.5166 45.3249 38.4823 45.3197C38.4147 45.3096 37.7326 45.2033 37.3944 45.1503C37.2791 45.1322 37.1516 45.1124 37.1111 45.1063C37.0706 45.1002 36.8258 45.0623 36.5671 45.0221C36.3085 44.9819 36.0107 44.9356 35.9055 44.9193C35.7656 44.8976 35.7031 44.8924 35.6732 44.8997C35.5892 44.9203 35.6035 44.9727 35.8988 45.7297C35.938 45.8301 36.1105 46.2805 36.3292 46.853C36.3716 46.9642 36.5731 47.4898 36.7768 48.0211C36.9806 48.5524 37.1946 49.111 37.2524 49.2623C37.3102 49.4137 37.5068 49.9268 37.6891 50.4025C37.8715 50.8781 38.0313 51.3027 38.0443 51.346C38.0618 51.4046 38.0679 51.4561 38.068 51.5482C38.0682 51.7111 38.0432 51.7775 37.945 51.8749C37.8038 52.0149 37.6208 52.0372 37.3881 51.9428C37.3386 51.9227 36.8187 51.6315 36.2328 51.2958C35.4004 50.8188 33.2987 49.6155 31.6715 48.6843C31.5936 48.6397 30.7368 48.1493 29.7676 47.5946C28.7984 47.0399 27.2277 46.1409 26.2772 45.5969C25.3267 45.0529 24.4904 44.5742 24.4187 44.533C24.2113 44.4138 20.8453 42.4876 19.1208 41.5012C18.2544 41.0056 17.5142 40.5801 17.4757 40.5555C17.3847 40.4973 17.2789 40.3926 17.2297 40.3122C17.1667 40.2092 17.1433 40.1248 17.1433 40.0011C17.1433 39.8775 17.1667 39.793 17.2297 39.69C17.2789 39.6096 17.3847 39.5049 17.4757 39.4467C17.5142 39.4221 18.1703 39.0447 18.9338 38.6079C19.6973 38.1712 21.1482 37.3409 22.1579 36.7629C23.1676 36.1849 24.6796 35.3195 25.518 34.8397C26.3563 34.3598 27.0932 33.9379 27.1555 33.9021C27.2867 33.8266 29.9538 32.3 32.1758 31.0287C33.0172 30.5472 33.9148 30.0332 34.1703 29.8865C35.9661 28.8553 37.3096 28.0913 37.375 28.0638C37.4523 28.0314 37.5969 27.9983 37.6532 28.0001C37.6698 28.0006 37.7089 28.0072 37.74 28.0147Z" fill="#292C26"/>
</svg>
