<svg width="48" height="24" viewBox="0 0 48 24" fill="none" xmlns="http://www.w3.org/2000/svg">
<path fill-rule="evenodd" clip-rule="evenodd" d="M25.9684 0.0147052C25.8312 0.0479198 25.7165 0.14361 25.6673 0.265921C25.6315 0.354849 25.6306 0.540838 25.6653 0.656219C25.6865 0.726355 25.8078 1.05166 25.9292 1.36387C25.9532 1.42565 26.0423 1.65816 26.127 1.88057C26.2118 2.10297 26.3294 2.41131 26.3884 2.56575C26.4474 2.7202 26.5303 2.93755 26.5727 3.04875C26.8123 3.67792 27.4278 5.28948 27.4649 5.38513C27.489 5.4469 27.5518 5.61118 27.6046 5.75018C27.6573 5.88919 27.7267 6.07115 27.7586 6.15456C28.0953 7.03295 28.1041 7.06054 28.0581 7.09405C28.0332 7.11212 27.9623 7.11364 27.8672 7.09812C27.8294 7.09197 27.5443 7.04889 27.2337 7.0024C26.923 6.95591 26.5367 6.89787 26.3751 6.87342C26.2136 6.84896 25.8603 6.796 25.59 6.75571C25.3197 6.71543 25.0681 6.67744 25.0308 6.67131C24.9935 6.66517 24.7749 6.63228 24.5451 6.59821C24.3152 6.56414 24.0953 6.53125 24.0565 6.52513C24.0177 6.51901 23.9541 6.50897 23.9153 6.50283C23.8764 6.49669 23.6566 6.46379 23.4267 6.42972C23.1968 6.39565 22.977 6.36276 22.9381 6.35664C22.8993 6.35052 22.8357 6.34048 22.7969 6.33434C22.7581 6.3282 22.5382 6.29513 22.3083 6.26086C22.0784 6.22659 21.6743 6.166 21.4103 6.12623C21.1462 6.08645 20.7624 6.02868 20.5574 5.99786C19.341 5.81495 19.0072 5.76475 18.5748 5.69964C17.4301 5.52728 16.9291 5.4519 16.1856 5.34017C15.7507 5.27482 15.1432 5.18348 14.8356 5.1372C14.5281 5.09091 14.0579 5.02031 13.7907 4.98033C13.5235 4.94033 13.2744 4.90259 13.2372 4.89644C13.1999 4.8903 12.9813 4.85727 12.7514 4.82305C12.3562 4.7642 11.9739 4.70683 11.0343 4.56529C10.2575 4.4483 9.49528 4.33375 9.01224 4.26144C8.74507 4.22144 8.49598 4.18374 8.4587 4.17764C8.42143 4.17154 8.25367 4.14625 8.08592 4.12146C7.75803 4.07302 7.59468 4.04842 7.4872 4.0313C7.44992 4.02537 7.24912 3.99516 7.04098 3.9642C6.83284 3.93322 6.61425 3.90045 6.55523 3.89136C6.4962 3.88229 6.31066 3.85445 6.1429 3.82952C5.97515 3.80458 5.80739 3.77924 5.77011 3.77321C5.73284 3.76718 5.4812 3.72932 5.21093 3.68908C4.94066 3.64883 4.68903 3.61091 4.65175 3.60481C4.61447 3.5987 4.42893 3.57089 4.23943 3.54299C4.04992 3.51508 3.8631 3.48725 3.82428 3.48112C3.78544 3.47498 3.72189 3.46495 3.68307 3.45881C3.64423 3.45267 3.42438 3.41973 3.19449 3.38562C2.9646 3.3515 2.74601 3.31868 2.70874 3.31269C2.13469 3.22032 1.95061 3.2054 1.81585 3.24029C1.69056 3.27273 1.58986 3.35093 1.53145 3.46117C1.50258 3.51567 1.5 3.53062 1.5 3.64408C1.5 3.7629 1.50156 3.77087 1.54071 3.85188C1.5631 3.89822 1.60377 3.96436 1.63109 3.99888C1.6584 4.0334 1.97045 4.36701 2.32454 4.74023C2.67862 5.11346 3.00904 5.46177 3.05882 5.51425C3.21911 5.6833 3.33906 5.80923 3.43856 5.91288C3.49204 5.96858 3.79406 6.2871 4.10971 6.62071C4.42537 6.95431 4.73202 7.27781 4.79117 7.33959C4.99505 7.55254 5.06147 7.62244 5.62353 8.21573C6.59718 9.24348 6.87807 9.53944 7.05203 9.72089C7.09942 9.77032 7.47567 10.1671 7.88816 10.6026C8.30064 11.0382 8.67956 11.4375 8.73021 11.49C8.91948 11.6863 8.96375 11.7396 8.99904 11.8137C9.03216 11.8832 9.03483 11.8976 9.03482 12.0067C9.03481 12.1116 9.0314 12.1319 9.0041 12.1898C8.9665 12.2697 8.95622 12.2828 8.80435 12.4446C8.73756 12.5157 8.18299 13.1098 7.57197 13.7646C6.96095 14.4195 6.40414 15.0159 6.33462 15.0901C6.26511 15.1642 5.9372 15.5155 5.60595 15.8707C5.2747 16.2259 4.93975 16.5847 4.8616 16.668C4.78346 16.7513 4.68174 16.8599 4.63556 16.9095C4.58938 16.959 4.52308 17.0299 4.48823 17.067C4.45338 17.1041 4.19633 17.3795 3.917 17.6792C2.82676 18.8486 2.51594 19.1816 2.44396 19.2573C2.40282 19.3006 2.27536 19.4371 2.1607 19.5606C2.04604 19.6842 1.91865 19.8206 1.87761 19.8639C1.64895 20.1048 1.59093 20.1777 1.537 20.2914C1.50194 20.3653 1.50003 20.376 1.50002 20.4985C1.5 20.6117 1.50321 20.6337 1.5259 20.676C1.60397 20.8213 1.74182 20.9035 1.93535 20.9199C2.0396 20.9288 2.08337 20.9234 2.74827 20.8198C3.82548 20.6519 4.2464 20.5864 4.3072 20.5771C4.34138 20.572 4.48626 20.5494 4.62916 20.5271C5.03882 20.463 5.15253 20.4452 5.45381 20.3983C5.60914 20.3741 5.95227 20.3206 6.21633 20.2795C6.48039 20.2383 6.72439 20.2004 6.75857 20.1953C6.79274 20.1901 7.03675 20.1522 7.3008 20.111C7.56486 20.0699 7.90545 20.0168 8.05768 19.993C8.2099 19.9693 8.51745 19.9213 8.74112 19.8863C8.96479 19.8513 9.17576 19.8185 9.20993 19.8133C9.2441 19.8082 9.48557 19.7707 9.74652 19.7301C10.0075 19.6894 10.4141 19.6261 10.6502 19.5894C10.8863 19.5526 11.4404 19.4662 11.8816 19.3974C12.3227 19.3285 12.9226 19.2351 13.2146 19.1898C13.5066 19.1445 13.9616 19.0738 14.2256 19.0326C14.4897 18.9915 14.7337 18.9536 14.7679 18.9485C14.802 18.9433 15.013 18.9105 15.2367 18.8755C15.6651 18.8085 15.8956 18.7725 16.677 18.6508C16.941 18.6097 17.368 18.5432 17.6259 18.503C17.8837 18.4629 18.1227 18.4257 18.1568 18.4205C18.272 18.4029 18.805 18.32 18.9871 18.2913C19.2094 18.2562 19.5867 18.1974 19.6706 18.1847C19.7617 18.1708 20.5648 18.0458 21.5119 17.898C21.9686 17.8268 22.3905 17.7611 22.4495 17.7521C22.5086 17.7431 22.6865 17.7154 22.8449 17.6906C23.1863 17.637 24.0554 17.5016 24.144 17.4882C24.1782 17.483 24.4222 17.4451 24.6863 17.404C24.9503 17.3628 25.1943 17.3249 25.2285 17.3197C25.2959 17.3096 25.9758 17.2033 26.313 17.1503C26.4279 17.1322 26.555 17.1124 26.5954 17.1063C26.6358 17.1002 26.8798 17.0623 27.1376 17.0221C27.3955 16.9819 27.6923 16.9356 27.7972 16.9193C27.9366 16.8976 27.9989 16.8924 28.0288 16.8997C28.1124 16.9203 28.0982 16.9727 27.8038 17.7297C27.7648 17.8301 27.5928 18.2805 27.3748 18.853C27.3325 18.9642 27.1317 19.4898 26.9286 20.0211C26.7255 20.5524 26.5121 21.111 26.4545 21.2623C26.3968 21.4137 26.2009 21.9268 26.0192 22.4025C25.8374 22.8781 25.6781 23.3027 25.6651 23.346C25.6476 23.4046 25.6416 23.4561 25.6415 23.5482C25.6412 23.7111 25.6662 23.7775 25.7641 23.8749C25.9049 24.0149 26.0873 24.0372 26.3192 23.9428C26.3686 23.9227 26.8868 23.6316 27.4709 23.2958C28.3006 22.8188 30.3957 21.6155 32.0178 20.6843C32.0954 20.6397 32.9494 20.1493 33.9156 19.5946C34.8817 19.0398 36.4474 18.1409 37.3949 17.5969C38.3424 17.0529 39.1761 16.5742 39.2476 16.533C39.4543 16.4138 42.8097 14.4876 44.5287 13.5012C45.3924 13.0056 46.1303 12.5801 46.1686 12.5555C46.2593 12.4973 46.3648 12.3926 46.4138 12.3122C46.4766 12.2092 46.5 12.1248 46.5 12.0011C46.5 11.8775 46.4766 11.793 46.4138 11.69C46.3648 11.6096 46.2593 11.5049 46.1686 11.4467C46.1303 11.4221 45.4762 11.0447 44.7151 10.6079C43.954 10.1712 42.5078 9.34093 41.5013 8.76292C40.4947 8.18493 38.9875 7.31945 38.1518 6.83965C37.3161 6.35984 36.5816 5.93794 36.5195 5.90208C36.3887 5.82661 33.73 4.30004 31.5151 3.02866C30.6763 2.5472 29.7816 2.03323 29.5269 1.8865C27.7367 0.85535 26.3975 0.0912551 26.3323 0.0638252C26.2552 0.031408 26.1111 -0.00171684 26.055 6.91337e-05C26.0384 0.000597064 25.9995 0.00717936 25.9684 0.0147052Z" fill="#292C26"/>
</svg>
