<svg width="48" height="24" viewBox="0 0 48 24" fill="none" xmlns="http://www.w3.org/2000/svg">
<path fill-rule="evenodd" clip-rule="evenodd" d="M22.0316 0.0147052C22.1688 0.0479198 22.2835 0.14361 22.3327 0.265921C22.3685 0.354849 22.3694 0.540838 22.3347 0.656219C22.3135 0.726355 22.1922 1.05166 22.0708 1.36387C22.0468 1.42565 21.9577 1.65816 21.873 1.88057C21.7882 2.10297 21.6706 2.41131 21.6116 2.56575C21.5526 2.7202 21.4697 2.93755 21.4273 3.04875C21.1877 3.67792 20.5722 5.28948 20.5351 5.38513C20.511 5.4469 20.4482 5.61118 20.3954 5.75018C20.3427 5.88919 20.2733 6.07115 20.2414 6.15456C19.9047 7.03295 19.8959 7.06054 19.9419 7.09405C19.9668 7.11212 20.0377 7.11364 20.1328 7.09812C20.1706 7.09197 20.4557 7.04889 20.7663 7.0024C21.077 6.95591 21.4633 6.89787 21.6249 6.87342C21.7864 6.84896 22.1397 6.796 22.41 6.75571C22.6803 6.71543 22.9319 6.67744 22.9692 6.67131C23.0065 6.66517 23.2251 6.63228 23.4549 6.59821C23.6848 6.56414 23.9047 6.53125 23.9435 6.52513C23.9823 6.51901 24.0459 6.50897 24.0847 6.50283C24.1236 6.49669 24.3434 6.46379 24.5733 6.42972C24.8032 6.39565 25.023 6.36276 25.0619 6.35664C25.1007 6.35052 25.1643 6.34048 25.2031 6.33434C25.2419 6.3282 25.4618 6.29513 25.6917 6.26086C25.9216 6.22659 26.3257 6.166 26.5897 6.12623C26.8538 6.08645 27.2376 6.02868 27.4426 5.99786C28.659 5.81495 28.9928 5.76475 29.4252 5.69964C30.5699 5.52728 31.0709 5.4519 31.8144 5.34017C32.2493 5.27482 32.8568 5.18348 33.1644 5.1372C33.4719 5.09091 33.9421 5.02031 34.2093 4.98033C34.4765 4.94033 34.7256 4.90259 34.7628 4.89644C34.8001 4.8903 35.0187 4.85727 35.2486 4.82305C35.6438 4.7642 36.0261 4.70683 36.9657 4.56529C37.7425 4.4483 38.5047 4.33375 38.9878 4.26144C39.2549 4.22144 39.504 4.18374 39.5413 4.17764C39.5786 4.17154 39.7463 4.14625 39.9141 4.12146C40.242 4.07302 40.4053 4.04842 40.5128 4.0313C40.5501 4.02537 40.7509 3.99516 40.959 3.9642C41.1672 3.93322 41.3857 3.90045 41.4448 3.89136C41.5038 3.88229 41.6893 3.85445 41.8571 3.82952C42.0249 3.80458 42.1926 3.77924 42.2299 3.77321C42.2672 3.76718 42.5188 3.72932 42.7891 3.68908C43.0593 3.64883 43.311 3.61091 43.3482 3.60481C43.3855 3.5987 43.5711 3.57089 43.7606 3.54299C43.9501 3.51508 44.1369 3.48725 44.1757 3.48112C44.2146 3.47498 44.2781 3.46495 44.3169 3.45881C44.3558 3.45267 44.5756 3.41973 44.8055 3.38562C45.0354 3.3515 45.254 3.31868 45.2913 3.31269C45.8653 3.22032 46.0494 3.2054 46.1841 3.24029C46.3094 3.27273 46.4101 3.35093 46.4686 3.46117C46.4974 3.51567 46.5 3.53062 46.5 3.64408C46.5 3.7629 46.4984 3.77087 46.4593 3.85188C46.4369 3.89822 46.3962 3.96436 46.3689 3.99888C46.3416 4.0334 46.0296 4.36701 45.6755 4.74023C45.3214 5.11346 44.991 5.46177 44.9412 5.51425C44.7809 5.6833 44.6609 5.80923 44.5614 5.91288C44.508 5.96858 44.2059 6.2871 43.8903 6.62071C43.5746 6.95431 43.268 7.27781 43.2088 7.33959C43.0049 7.55254 42.9385 7.62244 42.3765 8.21573C41.4028 9.24348 41.1219 9.53944 40.948 9.72089C40.9006 9.77032 40.5243 10.1671 40.1118 10.6026C39.6994 11.0382 39.3204 11.4375 39.2698 11.49C39.0805 11.6863 39.0362 11.7396 39.001 11.8137C38.9678 11.8832 38.9652 11.8976 38.9652 12.0067C38.9652 12.1116 38.9686 12.1319 38.9959 12.1898C39.0335 12.2697 39.0438 12.2828 39.1957 12.4446C39.2624 12.5157 39.817 13.1098 40.428 13.7646C41.0391 14.4195 41.5959 15.0159 41.6654 15.0901C41.7349 15.1642 42.0628 15.5155 42.394 15.8707C42.7253 16.2259 43.0603 16.5847 43.1384 16.668C43.2165 16.7513 43.3183 16.8599 43.3644 16.9095C43.4106 16.959 43.4769 17.0299 43.5118 17.067C43.5466 17.1041 43.8037 17.3795 44.083 17.6792C45.1732 18.8486 45.4841 19.1816 45.556 19.2573C45.5972 19.3006 45.7246 19.4371 45.8393 19.5606C45.954 19.6842 46.0813 19.8206 46.1224 19.8639C46.3511 20.1048 46.4091 20.1777 46.463 20.2914C46.4981 20.3653 46.5 20.376 46.5 20.4985C46.5 20.6117 46.4968 20.6337 46.4741 20.676C46.396 20.8213 46.2582 20.9035 46.0647 20.9199C45.9604 20.9288 45.9166 20.9234 45.2517 20.8198C44.1745 20.6519 43.7536 20.5864 43.6928 20.5771C43.6586 20.572 43.5137 20.5494 43.3708 20.5271C42.9612 20.463 42.8475 20.4452 42.5462 20.3983C42.3909 20.3741 42.0477 20.3206 41.7837 20.2795C41.5196 20.2383 41.2756 20.2004 41.2414 20.1953C41.2073 20.1901 40.9633 20.1522 40.6992 20.111C40.4351 20.0699 40.0945 20.0168 39.9423 19.993C39.7901 19.9693 39.4826 19.9213 39.2589 19.8863C39.0352 19.8513 38.8242 19.8185 38.7901 19.8133C38.7559 19.8082 38.5144 19.7707 38.2535 19.7301C37.9925 19.6894 37.5859 19.6261 37.3498 19.5894C37.1137 19.5526 36.5596 19.4662 36.1184 19.3974C35.6773 19.3285 35.0774 19.2351 34.7854 19.1898C34.4934 19.1445 34.0384 19.0738 33.7744 19.0326C33.5103 18.9915 33.2663 18.9536 33.2321 18.9485C33.198 18.9433 32.987 18.9105 32.7633 18.8755C32.3349 18.8085 32.1044 18.7725 31.323 18.6508C31.059 18.6097 30.632 18.5432 30.3741 18.503C30.1163 18.4629 29.8773 18.4257 29.8432 18.4205C29.728 18.4029 29.195 18.32 29.0129 18.2913C28.7906 18.2562 28.4133 18.1974 28.3294 18.1847C28.2383 18.1708 27.4352 18.0458 26.4881 17.898C26.0314 17.8268 25.6095 17.7611 25.5505 17.7521C25.4914 17.7431 25.3135 17.7154 25.1551 17.6906C24.8137 17.637 23.9446 17.5016 23.856 17.4882C23.8218 17.483 23.5778 17.4451 23.3137 17.404C23.0497 17.3628 22.8057 17.3249 22.7715 17.3197C22.7041 17.3096 22.0242 17.2033 21.687 17.1503C21.5721 17.1322 21.445 17.1124 21.4046 17.1063C21.3642 17.1002 21.1202 17.0623 20.8624 17.0221C20.6045 16.9819 20.3077 16.9356 20.2028 16.9193C20.0634 16.8976 20.0011 16.8924 19.9712 16.8997C19.8876 16.9203 19.9018 16.9727 20.1962 17.7297C20.2352 17.8301 20.4072 18.2805 20.6252 18.853C20.6675 18.9642 20.8683 19.4898 21.0714 20.0211C21.2745 20.5524 21.4879 21.111 21.5455 21.2623C21.6032 21.4137 21.7991 21.9268 21.9808 22.4025C22.1626 22.8781 22.3219 23.3027 22.3349 23.346C22.3524 23.4046 22.3584 23.4561 22.3585 23.5482C22.3588 23.7111 22.3338 23.7775 22.2359 23.8749C22.0951 24.0149 21.9127 24.0372 21.6808 23.9428C21.6314 23.9227 21.1132 23.6316 20.5291 23.2958C19.6994 22.8188 17.6043 21.6155 15.9822 20.6843C15.9046 20.6397 15.0506 20.1493 14.0844 19.5946C13.1183 19.0398 11.5526 18.1409 10.6051 17.5969C9.65756 17.0529 8.82387 16.5742 8.75242 16.533C8.54568 16.4138 5.19028 14.4876 3.47126 13.5012C2.60763 13.0056 1.8697 12.5801 1.83142 12.5555C1.7407 12.4973 1.63515 12.3926 1.58619 12.3122C1.52339 12.2092 1.5 12.1248 1.5 12.0011C1.5 11.8775 1.52339 11.793 1.58619 11.69C1.63515 11.6096 1.74071 11.5049 1.83142 11.4467C1.8697 11.4221 2.52376 11.0447 3.28486 10.6079C4.04597 10.1712 5.49222 9.34093 6.49875 8.76292C7.50527 8.18493 9.01252 7.31945 9.84819 6.83965C10.6839 6.35984 11.4184 5.93794 11.4805 5.90208C11.6113 5.82661 14.27 4.30004 16.4849 3.02866C17.3237 2.5472 18.2184 2.03323 18.4731 1.8865C20.2633 0.85535 21.6025 0.0912551 21.6677 0.0638252C21.7448 0.031408 21.8889 -0.00171684 21.945 6.91337e-05C21.9616 0.000597064 22.0005 0.00717936 22.0316 0.0147052Z" fill="#292C26"/>
</svg>
