<svg width="300" height="30" viewBox="0 0 300 30" fill="none" xmlns="http://www.w3.org/2000/svg">
<path d="M7.83798 6.26774C8.03342 8.10214 9.36241 9.28685 11.1214 9.28685C12.9194 9.28685 14.3266 7.91106 14.3266 6.15309C14.3266 4.47157 12.8021 3.01934 11.1605 3.01934C10.1051 3.01934 9.08879 3.59258 8.54156 4.35692C8.50248 2.98112 9.04971 1.71997 10.4569 1.14672C10.8478 0.993858 11.2777 0.917423 11.7077 0.917423C12.3722 0.917423 13.0367 1.07029 13.6621 1.45245L13.9748 0.879206C13.2712 0.497041 12.4894 0.305958 11.6686 0.305958C10.0269 0.305958 8.54156 1.29959 8.07251 2.86647C7.83798 3.78367 7.75981 5.38876 7.83798 6.26774ZM0.0985604 6.26774C0.293999 8.10214 1.62299 9.28685 3.38195 9.28685C5.14091 9.28685 6.58717 7.91106 6.58717 6.15309C6.58717 4.47157 5.06274 3.01934 3.38195 3.01934C2.36567 3.01934 1.34937 3.59258 0.802143 4.35692C0.763055 2.98112 1.31029 1.71997 2.71746 1.14672C3.10834 0.993858 3.53831 0.917423 3.96827 0.917423C4.63277 0.917423 5.29726 1.07029 5.92267 1.45245L6.23537 0.879206C5.53179 0.497041 4.75003 0.305958 3.92919 0.305958C2.28749 0.305958 0.802143 1.29959 0.333087 2.86647C0.0985604 3.78367 0.0203845 5.38876 0.0985604 6.26774ZM17.0343 29.2359H22.5848V3.59258L32.474 16.2805L42.3242 3.59258V29.2359H47.8747V2.59895H42.246L32.474 15.2104L22.6239 2.59895H17.0343V29.2359ZM50.989 29.2359H51.6926L55.5232 18.3442H66.6633L71.002 29.2359H76.8261L66.2724 2.59895H60.3701L50.989 29.2359ZM60.761 3.43972L66.4287 17.6945H55.7577L60.761 3.43972ZM88.9831 12.3442C82.4554 11.4652 80.5792 9.74545 80.5792 7.49067C80.5792 3.8601 84.6834 2.63717 88.6313 2.63717C95.0026 2.63717 95.2371 5.80914 95.2371 10.9302L100.709 10.204C100.709 4.3187 96.2534 2.02571 88.6313 2.02571C83.1981 2.02571 78.2339 4.20405 78.2339 9.05755C78.2339 13.9111 80.6964 16.2423 88.9049 17.427C95.4717 18.3824 99.3414 19.6818 99.3414 23.1595C99.3414 28.013 96.527 29.1977 89.9212 29.1977C83.7453 29.1977 83.5889 25.4142 83.5889 19.9875L77.5694 20.8665C77.5694 27.5161 81.7127 29.8474 89.9212 29.8474C98.2078 29.8474 102.078 27.8601 102.078 22.013C102.078 17.6945 100.397 13.8728 88.9831 12.3442ZM113.445 3.24864L113.484 29.2359H119.034V3.24864H130.252V2.59895H102.226V3.24864H113.445ZM132.199 29.2359H153.658V28.5862H137.749V15.669H150.179V14.9811H137.749V3.24864H153.658V2.59895H132.199V29.2359ZM156.4 2.59895V29.2359H161.95V20.0257H168.556L174.927 29.1977H181.26L174.536 19.4525C178.445 18.4588 181.416 16.0894 181.416 10.7773C181.416 4.12762 176.452 2.02571 170.667 2.02571C164.569 2.02571 162.81 6.49704 161.95 11.4652V2.59895H156.4ZM163.475 8.17857C164.53 4.43335 167.266 2.90469 169.69 2.7136C175.514 2.17857 175.748 5.80914 175.748 10.7773C175.748 18.841 171.37 19.376 167.618 19.376H161.95C161.95 19.376 161.794 14.1021 163.475 8.17857ZM200.373 29.2359H214.64C222.731 29.2359 229.298 24.8792 229.298 15.8601C229.298 6.64991 222.575 1.94927 214.484 1.94927C208.034 1.94927 206.119 7.64354 205.924 8.79004V2.59895H200.373V29.2359ZM205.924 28.5862V13.3378C205.924 6.99386 209.285 2.59895 214.484 2.59895C220.308 2.59895 223.67 7.22316 223.67 15.8601C223.67 23.6181 219.839 28.5862 214.015 28.5862H205.924ZM232.629 29.2359H254.088V28.5862H238.179V15.669H250.609V14.9811H238.179V3.24864H254.088V2.59895H232.629V29.2359ZM270.456 29.8474C273.387 29.8474 279.055 29.6945 283.746 25.1849L283.277 24.7646C278.782 29.083 273.309 29.1595 270.456 29.1212C264.632 29.1212 261.075 24.497 261.075 15.9365C261.075 7.83462 263.85 2.67539 270.456 2.67539C274.482 2.67539 280.541 4.20405 281.322 8.82825L281.987 8.75182C281.44 5.73271 277.804 2.02571 270.456 2.02571C261.27 2.02571 255.251 7.91106 255.251 15.9365C255.251 23.8856 261.27 29.8474 270.456 29.8474ZM296.451 6.34418C297.468 6.34418 298.484 5.77093 299.031 5.0066C299.07 6.38239 298.523 7.64354 297.155 8.21679C296.725 8.36965 296.295 8.44609 295.865 8.44609C295.201 8.44609 294.536 8.29322 293.911 7.94927L293.598 8.4843C294.301 8.86647 295.083 9.09577 295.865 9.09577C297.546 9.09577 298.992 8.10214 299.5 6.49704C299.774 5.57985 299.813 3.97475 299.735 3.09577C299.539 1.26137 298.21 0.0766602 296.451 0.0766602C294.692 0.0766602 293.246 1.49067 293.246 3.21042C293.246 4.89195 294.771 6.34418 296.451 6.34418ZM288.712 6.34418C289.728 6.34418 290.744 5.77093 291.292 5.0066C291.331 6.38239 290.784 7.64354 289.415 8.21679C288.986 8.36965 288.556 8.44609 288.126 8.44609C287.461 8.44609 286.797 8.29322 286.171 7.94927L285.858 8.4843C286.562 8.86647 287.344 9.09577 288.126 9.09577C289.806 9.09577 291.253 8.10214 291.761 6.49704C292.034 5.57985 292.073 3.97475 291.995 3.09577C291.8 1.26137 290.471 0.0766602 288.712 0.0766602C286.953 0.0766602 285.507 1.49067 285.507 3.21042C285.507 4.89195 287.031 6.34418 288.712 6.34418Z" fill="#F2ECE6"/>
</svg>
